<svg width="50" height="30" viewBox="0 0 50 30" fill="none" xmlns="http://www.w3.org/2000/svg">
<path fill-rule="evenodd" clip-rule="evenodd" d="M10.0855 19.6319C9.24171 19.1411 8.19807 18.8734 7.04341 18.8734C6.28844 18.8734 5.37803 19.0072 4.75629 19.2526C4.72365 19.269 4.68968 19.2854 4.65503 19.3022C4.54823 19.3537 4.43499 19.4084 4.3344 19.4758L4.53424 17.4901H10.749L10.749 17.4902H11.6409L11.801 15.9506L11.8 15.9517L11.9507 14.5674H1.58097L0.803799 22.1754L4.28999 22.5993L4.31031 22.5695C4.55313 22.2133 4.8984 21.7068 5.99977 21.7068C7.4431 21.7068 8.13146 22.6216 8.13146 23.8933C8.13146 24.9865 7.53192 26.0797 6.06639 26.0797C5.2226 26.0797 4.55645 25.7005 4.31219 24.8973C4.20117 24.5626 4.20117 24.228 4.20117 23.871L0.0488281 24.3172L0.052235 24.3336C0.272942 25.3982 0.475382 26.3746 1.38113 27.3068C2.95769 28.9132 5.28921 28.9132 6.04418 28.9132C7.22105 28.9132 9.39714 28.8017 10.9293 27.2399C11.0826 27.0858 11.2144 26.9317 11.3245 26.7777C11.3245 26.7777 11.3245 26.7777 11.3245 26.7777C11.9922 25.8813 12.3706 24.7385 12.3706 23.5956C12.3706 21.8506 11.4833 20.4406 10.0853 19.6332C10.0853 19.6328 10.0854 19.6324 10.0855 19.6319Z" fill="#FFF"/>
<path d="M7.15039 13.2229V10.4342H8.78929V3.50204H7.15039V0.527344H15.9265V3.50204H14.2876V10.4342H15.9265V13.2229H7.15039Z" fill="#FFF"/>
<path d="M23.8834 13.2228V10.4341H25.1522V7.53905C25.1522 6.66257 24.5442 6.26418 23.7248 6.26418C22.7203 6.26418 21.9537 7.00785 21.9537 8.01712V10.4075H23.2754V13.1697H16.4026V10.4341H17.645V6.26418H16.4026V3.50195H21.8215V5.41426C21.9008 5.33458 22.0066 5.22834 22.0594 5.14866C23.0639 4.00659 24.1742 3.60819 25.6809 3.60819C27.7692 3.60819 29.4874 4.45811 29.4874 6.79537V10.4606H30.5976V13.2228H23.8834Z" fill="#FFF"/>
<path d="M41.541 7.5923L37.8403 7.9907C37.7874 6.95487 37.5759 5.86591 36.3335 5.86591C34.7475 5.86591 34.6153 7.1939 34.6153 8.49533V8.52189C34.6153 9.79677 34.7475 11.1513 36.3335 11.1513C37.1794 11.1513 37.9196 10.6732 37.9196 9.63741H38.0518H41.6203L41.541 9.95612C40.933 12.9839 38.2104 13.462 36.2542 13.462C33.1879 13.462 30.1744 11.9481 30.1744 8.52189C30.1744 5.09568 33.1879 3.58177 36.2542 3.58177C36.2807 3.55521 41.0652 3.26305 41.541 7.5923Z" fill="#FFF"/>
<path d="M42.8362 13.2503C43.6976 13.2503 44.3958 12.5487 44.3958 11.6832C44.3958 10.8178 43.6976 10.1162 42.8362 10.1162C41.9749 10.1162 41.2766 10.8178 41.2766 11.6832C41.2766 12.5487 41.9749 13.2503 42.8362 13.2503Z" fill="#FFF"/>
<path fill-rule="evenodd" clip-rule="evenodd" d="M13.9879 16.8201C15.0093 15.3253 16.6525 14.3882 18.9618 14.4105C23.6915 14.4775 24.8461 18.6719 24.8683 21.5277C24.8683 25.0305 23.2474 29.0687 18.5843 29.0687C16.5442 29.0687 14.8584 28.1787 13.7923 26.5541C13.7922 26.5543 13.7921 26.5545 13.7919 26.5546C13.0404 25.37 12.6008 23.8292 12.6064 21.9328C12.6121 19.9766 13.0582 18.1767 13.9879 16.8202C13.9879 16.8202 13.9879 16.8201 13.9879 16.8201ZM16.9189 24.4504C17.1854 25.5436 17.8071 26.2129 18.7175 26.2129C20.4273 26.2129 20.716 23.9149 20.716 21.907C20.716 21.2823 20.6716 19.7428 20.4717 18.8727C20.2719 18.0026 19.7612 17.1994 18.7842 17.1994C18.3178 17.1994 17.7183 17.4448 17.3408 18.0695C16.8301 18.9619 16.7413 20.7914 16.7413 22.1747C16.7413 22.9333 16.7635 23.7141 16.9189 24.4504Z" fill="#FFF"/>
<path fill-rule="evenodd" clip-rule="evenodd" d="M26.4538 16.8201C27.4752 15.3253 29.1184 14.3882 31.4277 14.4105C36.1574 14.4775 37.3121 18.6719 37.3343 21.5277C37.3343 25.0305 35.7133 29.0687 31.0502 29.0687C29.0101 29.0687 27.3243 28.1787 26.2582 26.5541C26.2581 26.5543 26.258 26.5545 26.2579 26.5546C25.5064 25.37 25.0668 23.8292 25.0723 21.9328C25.078 19.9766 25.5242 18.1767 26.4539 16.8202C26.4538 16.8202 26.4538 16.8201 26.4538 16.8201ZM29.3849 24.4504C29.6513 25.5436 30.2731 26.2129 31.1835 26.2129C32.8933 26.2129 33.1819 23.9149 33.1819 21.907C33.1819 21.2823 33.1375 19.7428 32.9377 18.8727C32.7378 18.0026 32.2271 17.1994 31.2501 17.1994C30.7838 17.1994 30.1843 17.4448 29.8068 18.0695C29.2961 18.9619 29.2072 20.7914 29.2072 22.1747C29.2072 22.9333 29.2294 23.7141 29.3849 24.4504Z" fill="#FFF"/>
<path fill-rule="evenodd" clip-rule="evenodd" d="M38.9196 16.8201C39.9411 15.3253 41.5842 14.3882 43.8936 14.4105C48.6232 14.4775 49.7779 18.6719 49.8001 21.5277C49.8001 25.0305 48.1791 29.0687 43.5161 29.0687C41.4759 29.0687 39.7901 28.1787 38.7241 26.5541C38.7239 26.5543 38.7238 26.5545 38.7237 26.5546C37.9722 25.37 37.5326 23.8292 37.5381 21.9328C37.5439 19.9766 37.99 18.1767 38.9197 16.8202C38.9197 16.8202 38.9196 16.8201 38.9196 16.8201ZM41.8507 24.4504C42.1172 25.5436 42.7389 26.2129 43.6493 26.2129C45.3591 26.2129 45.6477 23.9149 45.6477 21.907C45.6477 21.2823 45.6033 19.7428 45.4035 18.8727C45.2036 18.0026 44.6929 17.1994 43.7159 17.1994C43.2496 17.1994 42.6501 17.4448 42.2726 18.0695C41.7619 18.9619 41.6731 20.7914 41.6731 22.1747C41.6731 22.9333 41.6953 23.7141 41.8507 24.4504Z" fill="#FFF"/>
</svg>
